{"title":"The.Freebie LiMiTED DvdRip.H264.Feel-Free","uid":6087797,"size":652434646,"categoryP":"video","categoryS":"movies","magnet":"?xt=urn:btih:a12be56d159a7a5b5db7cdc5b8118b97b30561dd&amp;dn=The.Freebie+LiMiTED+DvdRip.H264.Feel-Free&amp;tr=udp%3A%2F%2Ftracker.openbittorrent.com%3A80&amp;tr=udp%3A%2F%2Fopen.demonii.com%3A1337&amp;tr=udp%3A%2F%2Ftracker.coppersurfer.tk%3A6969&amp;tr=udp%3A%2F%2Fexodus.desync.com%3A6969","seeders":0,"leechers":1,"uploader":"neon","files":-1,"time":1294409826,"description":"Genre:Drama, Comedy\nLanguage:English\n &lt;a href=&quot; http://www.imdb.com/title/tt1474889/&quot; rel=&quot;nofollow&quot; target=&quot;_NEW&quot;&gt; http://www.imdb.com/title/tt1474889/&lt;/a&gt;\nSource:DVD Thx.\n\n\nFormat : MPEG-4\nFormat profile : Base Media\nCodec ID : isom\nFile size : 621 MiB\nDuration : 1h 17mn\nOverall bit rate : 1 127 Kbps\nMovie name : The.Freebie.LiMiTED.DvdRip.H264.Feel-Free\n\n\nVideo\nFormat settings, CABAC : Yes\nFormat settings, ReFrames : 4 frames\nCodec ID : avc1\nCodec ID/Info : Advanced Video Coding\nDuration : 1h 17mn\nBit rate mode : Variable\nBit rate : 1 000 Kbps\nWidth : 720 pixels\nHeight : 384 pixels\nDisplay aspect ratio : 1.875\nFrame rate mode : Constant\nFrame rate : 23.976 fps\nColor space : YUV\nChroma subsampling : 4:2:0\nBit depth : 8 bits\nScan type : Progressive\nBits/(Pixel*Frame) : 0.151\nStream size : 526 MiB (85%)\n\nAudio\nID : 2\nFormat : AAC\nFormat/Info : Advanced Audio Codec\nFormat version : Version 4\nFormat profile : LC\nCodec ID : 40\nDuration : 1h 17mn\nBit rate mode : Variable\nBit rate : 165 Kbps\nChannel(s) : 2 channels\nChannel positions : Front: L R\nSampling rate : 48.0 KHz\nStream size : 91.1 MiB (15%)\n\n\nPlot:\nA young couple decides to give each other a night off, no questions asked.\n &lt;a href=&quot;\nhttp://shareimage.org/images/3b4iw9flya7kof3q5pya.png&quot; rel=&quot;nofollow&quot; target=&quot;_NEW&quot;&gt;\nhttp://shareimage.org/images/3b4iw9flya7kof3q5pya.png&lt;/a&gt; &lt;a href=&quot;\nhttp://shareimage.org/images/7zzpe2swtf966u9jaqdc.png&quot; rel=&quot;nofollow&quot; target=&quot;_NEW&quot;&gt;\nhttp://shareimage.org/images/7zzpe2swtf966u9jaqdc.png&lt;/a&gt; &lt;a href=&quot;\nhttp://shareimage.org/images/q6qo06fomzepvllnhza.png&quot; rel=&quot;nofollow&quot; target=&quot;_NEW&quot;&gt;\nhttp://shareimage.org/images/q6qo06fomzepvllnhza.png&lt;/a&gt; &lt;a href=&quot;\nhttp://shareimage.org/images/whtc3szmbz48ehs0kclv.png&quot; rel=&quot;nofollow&quot; target=&quot;_NEW&quot;&gt;\nhttp://shareimage.org/images/whtc3szmbz48ehs0kclv.png&lt;/a&gt;","torrent":{"xt":"urn:btih:a12be56d159a7a5b5db7cdc5b8118b97b30561dd","amp;dn":"The.Freebie+LiMiTED+DvdRip.H264.Feel-Free","amp;tr":["udp%3A%2F%2Ftracker.openbittorrent.com%3A80","udp%3A%2F%2Fopen.demonii.com%3A1337","udp%3A%2F%2Ftracker.coppersurfer.tk%3A6969","udp%3A%2F%2Fexodus.desync.com%3A6969"],"infoHash":"a12be56d159a7a5b5db7cdc5b8118b97b30561dd","infoHashBuffer":{"type":"Buffer","data":[161,43,229,109,21,154,122,91,93,183,205,197,184,17,139,151,179,5,97,221]},"announce":[],"urlList":[]}}